<?xml version="1.0"?>
<svg version="1.1" xmlns="http://www.w3.org/2000/svg" width="400px" height="200px" ><path fill="#" d="M62.005859375,110.79296875l-3.111328125,0l-2.98828125-4.8603515625l-2.98828125,4.8603515625l-2.91796875,0l4.2626953125-6.626953125l-3.990234375-6.22265625l3.005859375,0l2.7685546875,4.623046875l2.7158203125-4.623046875l2.935546875,0l-4.0341796875,6.3720703125z M68.639580078125,110.96875q-4.587890625,0-4.587890625-5.0361328125q0-2.5048828125,1.248046875-3.82763671875t3.5771484375-1.32275390625q1.705078125,0,3.05859375,0.66796875l-0.791015625,2.07421875q-0.6328125-0.2548828125-1.177734375-0.41748046875t-1.08984375-0.16259765625q-2.091796875,0-2.091796875,2.970703125q0,2.8828125,2.091796875,2.8828125q0.7734375,0,1.4326171875-0.20654296875t1.318359375-0.64599609375l0,2.2939453125q-0.650390625,0.4130859375-1.31396484375,0.5712890625t-1.67431640625,0.158203125z M77.27720703125,105.8623046875q0,1.458984375,0.47900390625,2.2060546875t1.56005859375,0.7470703125q1.072265625,0,1.54248046875-0.74267578125t0.47021484375-2.21044921875q0-1.458984375-0.474609375-2.1884765625t-1.5556640625-0.7294921875q-1.072265625,0-1.546875,0.72509765625t-0.474609375,2.19287109375z M84.07115234375,105.8623046875q0,2.3994140625-1.265625,3.7529296875t-3.5244140625,1.353515625q-1.4150390625,0-2.49609375-0.61962890625t-1.6611328125-1.77978515625t-0.580078125-2.70703125q0-2.408203125,1.2568359375-3.744140625t3.533203125-1.3359375q1.4150390625,0,2.49609375,0.615234375t1.6611328125,1.7666015625t0.580078125,2.6982421875z M96.593544921875,110.79296875l-2.6806640625,0l0-5.7392578125q0-1.0634765625-0.3779296875-1.59521484375t-1.2041015625-0.53173828125q-1.125,0-1.6259765625,0.75146484375t-0.5009765625,2.49169921875l0,4.623046875l-2.6806640625,0l0-9.826171875l2.0478515625,0l0.3603515625,1.2568359375l0.1494140625,0q0.4482421875-0.7119140625,1.23486328125-1.07666015625t1.78857421875-0.36474609375q1.7138671875,0,2.6015625,0.92724609375t0.8876953125,2.67626953125l0,6.4072265625z M100.4762890625,98.4267578125q0-1.3095703125,1.458984375-1.3095703125t1.458984375,1.3095703125q0,0.6240234375-0.36474609375,0.97119140625t-1.09423828125,0.34716796875q-1.458984375,0-1.458984375-1.318359375z M103.2712109375,110.79296875l-2.6806640625,0l0-9.826171875l2.6806640625,0l0,9.826171875z M109.45668945312,105.8623046875q0,1.458984375,0.47900390625,2.2060546875t1.56005859375,0.7470703125q1.072265625,0,1.54248046875-0.74267578125t0.47021484375-2.21044921875q0-1.458984375-0.474609375-2.1884765625t-1.5556640625-0.7294921875q-1.072265625,0-1.546875,0.72509765625t-0.474609375,2.19287109375z M116.25063476562,105.8623046875q0,2.3994140625-1.265625,3.7529296875t-3.5244140625,1.353515625q-1.4150390625,0-2.49609375-0.61962890625t-1.6611328125-1.77978515625t-0.580078125-2.70703125q0-2.408203125,1.2568359375-3.744140625t3.533203125-1.3359375q1.4150390625,0,2.49609375,0.615234375t1.6611328125,1.7666015625t0.580078125,2.6982421875z"/><path fill="#" d=""/></svg>
